# xmcd CD database file
#
# Track frame offsets:
#	150
#	18521
#	33761
#	50512
#	63863
#	81659
#	102754
#	120406
#	134019
#	159413
#	171864
#	182735
#	204268
#	219716
#	254606
#	275226
#	284186
#
# Disc length: 4057 seconds
#
# Revision: 0
# Processed by: cddbd v1.5.1PL2 Copyright (c) Steve Scherf et al.
# Submitted via: CDex 1.51
#
DISCID=050fd711
DTITLE=Fami-complex - next-style
DYEAR=2006
DGENRE=Game
TTITLE0=Legend of KAGE
TTITLE1=月風魔伝
TTITLE2=Vampile Killer
TTITLE3=Bloody Tears
TTITLE4=Final Fantasy 2
TTITLE5=FIRE EMBLEM
TTITLE6=Distesa di Oceano
TTITLE7=ZANAC AREA-1&2
TTITLE8=THEXDER
TTITLE9=3rd Period
TTITLE10=R3P
TTITLE11=SUPER XEVIOUS
TTITLE12=KARA-TECHNO
TTITLE13=Cream Zone
TTITLE14=JOY-MECH FIGHT
TTITLE15=JetCoaster Rock
TTITLE16=君はホエホエ娘
EXTD=YEAR: 2006
EXTT0=
EXTT1=
EXTT2=
EXTT3=
EXTT4=
EXTT5=
EXTT6=
EXTT7=
EXTT8=
EXTT9=
EXTT10=
EXTT11=
EXTT12=
EXTT13=
EXTT14=
EXTT15=
EXTT16=
PLAYORDER=
